<?xml version="1.0" encoding="UTF-8"?>
<svg xmlns="http://www.w3.org/2000/svg" xmlns:xlink="http://www.w3.org/1999/xlink" width="1280" height="720" viewBox="0 0 1280 720">
<defs>
<g>
<g id="glyph-0-0">
<path d="M 1.234375 -0.902344 L 1.234375 -0.644531 C 1.234375 -0.421875 1.179688 -0.246094 1.074219 -0.117188 C 0.992188 -0.015625 0.886719 0.0351562 0.757812 0.0351562 C 0.699219 0.0351562 0.640625 0.0234375 0.585938 0 C 0.535156 -0.0234375 0.488281 -0.0585938 0.449219 -0.101562 C 0.425781 -0.128906 0.398438 -0.171875 0.371094 -0.230469 C 0.34375 -0.292969 0.324219 -0.347656 0.3125 -0.398438 C 0.292969 -0.46875 0.28125 -0.550781 0.28125 -0.644531 L 0.28125 -0.902344 C 0.28125 -1.125 0.335938 -1.300781 0.441406 -1.429688 C 0.523438 -1.535156 0.628906 -1.585938 0.757812 -1.585938 C 0.816406 -1.585938 0.875 -1.574219 0.929688 -1.546875 C 0.980469 -1.523438 1.027344 -1.488281 1.066406 -1.445312 C 1.089844 -1.417969 1.117188 -1.375 1.144531 -1.316406 C 1.171875 -1.253906 1.191406 -1.199219 1.207031 -1.152344 C 1.222656 -1.078125 1.234375 -0.996094 1.234375 -0.902344 M 1.128906 -0.886719 C 1.128906 -0.984375 1.117188 -1.078125 1.089844 -1.160156 C 1.0625 -1.246094 1.03125 -1.3125 0.996094 -1.363281 C 0.972656 -1.390625 0.949219 -1.414062 0.914062 -1.4375 C 0.867188 -1.464844 0.816406 -1.480469 0.757812 -1.480469 C 0.640625 -1.480469 0.550781 -1.421875 0.484375 -1.300781 C 0.417969 -1.183594 0.386719 -1.046875 0.386719 -0.886719 L 0.386719 -0.660156 C 0.386719 -0.5625 0.398438 -0.46875 0.425781 -0.386719 C 0.453125 -0.300781 0.484375 -0.234375 0.523438 -0.183594 C 0.542969 -0.15625 0.566406 -0.132812 0.601562 -0.109375 C 0.648438 -0.0820312 0.699219 -0.0664062 0.757812 -0.0664062 C 0.875 -0.0664062 0.964844 -0.125 1.03125 -0.246094 C 1.097656 -0.363281 1.128906 -0.5 1.128906 -0.660156 Z "/>
</g>
<g id="glyph-0-1">
<path d="M 1.183594 -0.875 C 1.128906 -0.78125 1.066406 -0.710938 0.992188 -0.664062 C 0.917969 -0.613281 0.84375 -0.589844 0.765625 -0.589844 C 0.695312 -0.589844 0.625 -0.609375 0.558594 -0.652344 C 0.492188 -0.695312 0.4375 -0.753906 0.398438 -0.832031 C 0.359375 -0.914062 0.339844 -0.996094 0.339844 -1.082031 C 0.339844 -1.210938 0.378906 -1.324219 0.457031 -1.429688 C 0.535156 -1.53125 0.640625 -1.585938 0.773438 -1.585938 C 0.867188 -1.585938 0.949219 -1.554688 1.027344 -1.496094 C 1.105469 -1.4375 1.164062 -1.355469 1.207031 -1.242188 C 1.261719 -1.101562 1.292969 -0.933594 1.292969 -0.746094 C 1.292969 -0.601562 1.269531 -0.480469 1.222656 -0.382812 C 1.191406 -0.316406 1.144531 -0.253906 1.082031 -0.191406 C 1.023438 -0.128906 0.953125 -0.078125 0.878906 -0.0390625 C 0.777344 0.0117188 0.667969 0.0351562 0.554688 0.0351562 C 0.480469 0.0351562 0.421875 0.0234375 0.375 -0.00390625 C 0.351562 -0.0195312 0.34375 -0.0351562 0.34375 -0.0546875 C 0.34375 -0.0664062 0.347656 -0.078125 0.359375 -0.0898438 C 0.367188 -0.0976562 0.378906 -0.105469 0.394531 -0.105469 C 0.402344 -0.105469 0.417969 -0.0976562 0.4375 -0.0898438 C 0.46875 -0.0742188 0.503906 -0.0664062 0.546875 -0.0664062 C 0.722656 -0.0664062 0.871094 -0.128906 1 -0.257812 C 1.125 -0.382812 1.1875 -0.539062 1.1875 -0.730469 C 1.1875 -0.765625 1.1875 -0.8125 1.183594 -0.875 M 1.164062 -1.046875 C 1.121094 -1.214844 1.066406 -1.328125 1 -1.390625 C 0.9375 -1.449219 0.859375 -1.480469 0.773438 -1.480469 C 0.6875 -1.480469 0.609375 -1.441406 0.542969 -1.367188 C 0.476562 -1.292969 0.441406 -1.199219 0.441406 -1.082031 C 0.441406 -0.972656 0.476562 -0.878906 0.542969 -0.804688 C 0.609375 -0.730469 0.683594 -0.695312 0.769531 -0.695312 C 0.816406 -0.695312 0.863281 -0.707031 0.910156 -0.734375 C 0.960938 -0.761719 1.003906 -0.800781 1.046875 -0.851562 C 1.074219 -0.886719 1.113281 -0.953125 1.164062 -1.046875 Z "/>
</g>
<g id="glyph-0-2">
<path d="M 0.472656 -1.441406 L 0.472656 -0.9375 C 0.53125 -0.960938 0.589844 -0.980469 0.648438 -0.992188 C 0.703125 -1.007812 0.757812 -1.011719 0.804688 -1.011719 C 0.9375 -1.011719 1.046875 -0.964844 1.132812 -0.875 C 1.21875 -0.785156 1.265625 -0.664062 1.265625 -0.515625 C 1.265625 -0.351562 1.214844 -0.21875 1.117188 -0.117188 C 1.015625 -0.015625 0.894531 0.0351562 0.746094 0.0351562 C 0.648438 0.0351562 0.554688 0.015625 0.464844 -0.0273438 C 0.398438 -0.0585938 0.339844 -0.0976562 0.289062 -0.140625 C 0.257812 -0.167969 0.242188 -0.191406 0.242188 -0.210938 C 0.242188 -0.222656 0.246094 -0.238281 0.257812 -0.246094 C 0.265625 -0.257812 0.277344 -0.261719 0.289062 -0.261719 C 0.304688 -0.261719 0.320312 -0.253906 0.335938 -0.242188 C 0.460938 -0.125 0.59375 -0.0664062 0.742188 -0.0664062 C 0.863281 -0.0664062 0.960938 -0.109375 1.039062 -0.191406 C 1.121094 -0.273438 1.160156 -0.382812 1.160156 -0.519531 C 1.160156 -0.636719 1.125 -0.730469 1.058594 -0.800781 C 0.988281 -0.875 0.902344 -0.910156 0.796875 -0.910156 C 0.6875 -0.910156 0.582031 -0.878906 0.472656 -0.824219 C 0.445312 -0.8125 0.429688 -0.804688 0.417969 -0.804688 C 0.402344 -0.804688 0.390625 -0.808594 0.382812 -0.820312 C 0.375 -0.828125 0.367188 -0.84375 0.367188 -0.859375 L 0.367188 -1.546875 L 1.089844 -1.546875 C 1.117188 -1.546875 1.132812 -1.542969 1.144531 -1.53125 C 1.15625 -1.523438 1.160156 -1.511719 1.160156 -1.496094 C 1.160156 -1.480469 1.15625 -1.46875 1.144531 -1.457031 C 1.132812 -1.449219 1.117188 -1.441406 1.089844 -1.441406 Z "/>
</g>
<g id="glyph-0-3">
<path d="M 1.214844 -1.300781 L 1.214844 -1.375 C 1.214844 -1.398438 1.21875 -1.414062 1.226562 -1.425781 C 1.238281 -1.4375 1.25 -1.441406 1.265625 -1.441406 C 1.28125 -1.441406 1.292969 -1.4375 1.304688 -1.425781 C 1.3125 -1.414062 1.316406 -1.398438 1.316406 -1.375 L 1.316406 -1.085938 C 1.316406 -1.0625 1.3125 -1.042969 1.304688 -1.03125 C 1.292969 -1.019531 1.28125 -1.015625 1.265625 -1.015625 C 1.25 -1.015625 1.238281 -1.019531 1.230469 -1.03125 C 1.21875 -1.039062 1.214844 -1.058594 1.214844 -1.078125 C 1.210938 -1.148438 1.171875 -1.210938 1.101562 -1.261719 C 1.003906 -1.335938 0.898438 -1.371094 0.777344 -1.371094 C 0.695312 -1.371094 0.621094 -1.355469 0.550781 -1.320312 C 0.496094 -1.292969 0.457031 -1.261719 0.425781 -1.226562 C 0.371094 -1.160156 0.328125 -1.089844 0.292969 -1.011719 C 0.273438 -0.953125 0.261719 -0.890625 0.261719 -0.816406 L 0.261719 -0.636719 C 0.261719 -0.480469 0.316406 -0.347656 0.429688 -0.234375 C 0.539062 -0.121094 0.667969 -0.0625 0.816406 -0.0625 C 0.90625 -0.0625 0.984375 -0.0820312 1.054688 -0.121094 C 1.125 -0.160156 1.195312 -0.21875 1.261719 -0.296875 C 1.273438 -0.3125 1.289062 -0.320312 1.308594 -0.320312 C 1.320312 -0.320312 1.332031 -0.316406 1.34375 -0.308594 C 1.351562 -0.300781 1.355469 -0.289062 1.355469 -0.273438 C 1.355469 -0.253906 1.339844 -0.226562 1.304688 -0.1875 C 1.234375 -0.113281 1.160156 -0.0546875 1.074219 -0.015625 C 0.992188 0.0234375 0.90625 0.0390625 0.820312 0.0390625 C 0.746094 0.0390625 0.667969 0.0273438 0.59375 -0.00390625 C 0.53125 -0.0234375 0.484375 -0.0507812 0.445312 -0.0820312 C 0.40625 -0.109375 0.359375 -0.160156 0.300781 -0.230469 C 0.246094 -0.300781 0.207031 -0.363281 0.1875 -0.425781 C 0.167969 -0.484375 0.15625 -0.550781 0.15625 -0.621094 L 0.15625 -0.832031 C 0.15625 -0.933594 0.183594 -1.039062 0.238281 -1.144531 C 0.292969 -1.25 0.367188 -1.332031 0.464844 -1.390625 C 0.558594 -1.449219 0.660156 -1.476562 0.773438 -1.476562 C 0.941406 -1.476562 1.089844 -1.417969 1.214844 -1.300781 Z "/>
</g>
<g id="glyph-0-4">
<path d="M 0.351562 -0.105469 L 0.351562 -1.339844 L 0.265625 -1.339844 C 0.238281 -1.339844 0.222656 -1.34375 0.210938 -1.351562 C 0.199219 -1.363281 0.195312 -1.375 0.195312 -1.390625 C 0.195312 -1.40625 0.199219 -1.417969 0.210938 -1.429688 C 0.222656 -1.4375 0.238281 -1.441406 0.265625 -1.441406 L 0.820312 -1.441406 C 0.910156 -1.441406 0.988281 -1.425781 1.058594 -1.386719 C 1.132812 -1.351562 1.1875 -1.3125 1.222656 -1.265625 C 1.289062 -1.1875 1.339844 -1.105469 1.371094 -1.015625 C 1.394531 -0.953125 1.40625 -0.878906 1.40625 -0.792969 L 1.40625 -0.648438 C 1.40625 -0.542969 1.386719 -0.441406 1.339844 -0.339844 C 1.292969 -0.242188 1.214844 -0.15625 1.105469 -0.0820312 C 1.023438 -0.0273438 0.929688 0 0.820312 0 L 0.265625 0 C 0.238281 0 0.222656 -0.00390625 0.210938 -0.015625 C 0.199219 -0.0234375 0.195312 -0.0351562 0.195312 -0.0507812 C 0.195312 -0.0664062 0.199219 -0.078125 0.210938 -0.0898438 C 0.222656 -0.0976562 0.238281 -0.105469 0.265625 -0.105469 L 0.351562 -0.105469 M 0.453125 -0.105469 L 0.832031 -0.105469 C 0.917969 -0.105469 1 -0.132812 1.074219 -0.1875 C 1.152344 -0.246094 1.210938 -0.3125 1.246094 -0.394531 C 1.285156 -0.472656 1.304688 -0.550781 1.304688 -0.628906 L 1.304688 -0.816406 C 1.304688 -0.878906 1.292969 -0.9375 1.273438 -0.988281 C 1.246094 -1.058594 1.203125 -1.128906 1.148438 -1.195312 C 1.117188 -1.230469 1.074219 -1.265625 1.015625 -1.292969 C 0.960938 -1.324219 0.898438 -1.339844 0.832031 -1.339844 L 0.453125 -1.339844 Z "/>
</g>
<g id="glyph-0-5">
<path d="M 0.316406 -0.105469 L 0.316406 -1.339844 L 0.175781 -1.339844 C 0.152344 -1.339844 0.132812 -1.34375 0.125 -1.351562 C 0.113281 -1.363281 0.105469 -1.375 0.105469 -1.390625 C 0.105469 -1.40625 0.113281 -1.417969 0.125 -1.429688 C 0.132812 -1.4375 0.152344 -1.441406 0.175781 -1.441406 L 0.828125 -1.441406 C 0.957031 -1.441406 1.0625 -1.40625 1.140625 -1.332031 C 1.222656 -1.257812 1.265625 -1.167969 1.265625 -1.070312 C 1.265625 -0.941406 1.195312 -0.839844 1.058594 -0.761719 C 1.167969 -0.722656 1.246094 -0.671875 1.296875 -0.609375 C 1.347656 -0.542969 1.371094 -0.472656 1.371094 -0.394531 C 1.371094 -0.328125 1.355469 -0.265625 1.324219 -0.207031 C 1.289062 -0.148438 1.238281 -0.101562 1.171875 -0.0585938 C 1.105469 -0.0195312 1.03125 0 0.949219 0 L 0.175781 0 C 0.152344 0 0.132812 -0.00390625 0.125 -0.015625 C 0.113281 -0.0234375 0.105469 -0.0351562 0.105469 -0.0507812 C 0.105469 -0.0664062 0.113281 -0.078125 0.125 -0.0898438 C 0.132812 -0.0976562 0.152344 -0.105469 0.175781 -0.105469 L 0.316406 -0.105469 M 0.417969 -0.800781 L 0.785156 -0.800781 C 0.863281 -0.800781 0.933594 -0.816406 1 -0.84375 C 1.050781 -0.867188 1.089844 -0.902344 1.117188 -0.945312 C 1.144531 -0.988281 1.160156 -1.03125 1.160156 -1.078125 C 1.160156 -1.144531 1.128906 -1.203125 1.066406 -1.257812 C 1.007812 -1.3125 0.925781 -1.339844 0.828125 -1.339844 L 0.417969 -1.339844 L 0.417969 -0.800781 M 0.417969 -0.105469 L 0.941406 -0.105469 C 1.011719 -0.105469 1.066406 -0.117188 1.117188 -0.148438 C 1.167969 -0.175781 1.203125 -0.214844 1.230469 -0.257812 C 1.253906 -0.300781 1.269531 -0.347656 1.269531 -0.394531 C 1.269531 -0.445312 1.25 -0.496094 1.210938 -0.546875 C 1.175781 -0.59375 1.125 -0.632812 1.058594 -0.660156 C 0.996094 -0.683594 0.90625 -0.695312 0.792969 -0.695312 L 0.417969 -0.695312 Z "/>
</g>
<g id="glyph-0-6">
<path d="M 1.097656 -0.480469 L 0.417969 -0.480469 L 0.277344 -0.105469 L 0.476562 -0.105469 C 0.5 -0.105469 0.519531 -0.0976562 0.53125 -0.0898438 C 0.539062 -0.078125 0.546875 -0.0664062 0.546875 -0.0507812 C 0.546875 -0.0351562 0.539062 -0.0234375 0.53125 -0.015625 C 0.519531 -0.00390625 0.5 0 0.476562 0 L 0.0898438 0 C 0.0664062 0 0.046875 -0.00390625 0.0351562 -0.015625 C 0.0273438 -0.0234375 0.0195312 -0.0351562 0.0195312 -0.0507812 C 0.0195312 -0.0664062 0.0273438 -0.078125 0.0351562 -0.0898438 C 0.046875 -0.0976562 0.0664062 -0.105469 0.0898438 -0.105469 L 0.171875 -0.105469 L 0.628906 -1.339844 L 0.320312 -1.339844 C 0.296875 -1.339844 0.28125 -1.34375 0.269531 -1.351562 C 0.257812 -1.363281 0.253906 -1.375 0.253906 -1.390625 C 0.253906 -1.40625 0.257812 -1.417969 0.269531 -1.429688 C 0.28125 -1.4375 0.296875 -1.441406 0.320312 -1.441406 L 0.84375 -1.441406 L 1.347656 -0.105469 L 1.429688 -0.105469 C 1.453125 -0.105469 1.472656 -0.0976562 1.480469 -0.0898438 C 1.492188 -0.078125 1.5 -0.0664062 1.5 -0.0507812 C 1.5 -0.0351562 1.492188 -0.0234375 1.480469 -0.015625 C 1.472656 -0.00390625 1.453125 0 1.429688 0 L 1.042969 0 C 1.019531 0 1 -0.00390625 0.988281 -0.015625 C 0.976562 -0.0234375 0.972656 -0.0351562 0.972656 -0.0507812 C 0.972656 -0.0664062 0.976562 -0.078125 0.988281 -0.0898438 C 1 -0.0976562 1.019531 -0.105469 1.042969 -0.105469 L 1.242188 -0.105469 L 1.097656 -0.480469 M 1.058594 -0.585938 L 0.773438 -1.339844 L 0.734375 -1.339844 L 0.457031 -0.585938 Z "/>
</g>
<g id="glyph-0-7">
<path d="M 0.421875 -0.695312 L 0.421875 -0.105469 L 1.21875 -0.105469 L 1.21875 -0.410156 C 1.21875 -0.433594 1.222656 -0.453125 1.230469 -0.460938 C 1.242188 -0.472656 1.253906 -0.476562 1.269531 -0.476562 C 1.285156 -0.476562 1.296875 -0.472656 1.304688 -0.460938 C 1.316406 -0.453125 1.320312 -0.433594 1.320312 -0.410156 L 1.320312 0 L 0.175781 0 C 0.152344 0 0.136719 -0.00390625 0.125 -0.015625 C 0.113281 -0.0234375 0.109375 -0.0351562 0.109375 -0.0507812 C 0.109375 -0.0664062 0.113281 -0.078125 0.125 -0.0898438 C 0.136719 -0.0976562 0.152344 -0.105469 0.175781 -0.105469 L 0.316406 -0.105469 L 0.316406 -1.339844 L 0.175781 -1.339844 C 0.152344 -1.339844 0.136719 -1.34375 0.125 -1.351562 C 0.113281 -1.363281 0.109375 -1.375 0.109375 -1.390625 C 0.109375 -1.40625 0.113281 -1.417969 0.125 -1.429688 C 0.136719 -1.4375 0.152344 -1.441406 0.175781 -1.441406 L 1.265625 -1.441406 L 1.265625 -1.085938 C 1.265625 -1.0625 1.261719 -1.042969 1.253906 -1.035156 C 1.242188 -1.023438 1.230469 -1.015625 1.214844 -1.015625 C 1.199219 -1.015625 1.1875 -1.023438 1.175781 -1.035156 C 1.167969 -1.042969 1.164062 -1.0625 1.164062 -1.085938 L 1.164062 -1.339844 L 0.421875 -1.339844 L 0.421875 -0.800781 L 0.792969 -0.800781 L 0.792969 -0.917969 C 0.792969 -0.941406 0.796875 -0.960938 0.804688 -0.96875 C 0.816406 -0.980469 0.828125 -0.988281 0.84375 -0.988281 C 0.859375 -0.988281 0.871094 -0.980469 0.882812 -0.96875 C 0.890625 -0.960938 0.894531 -0.941406 0.894531 -0.917969 L 0.894531 -0.578125 C 0.894531 -0.554688 0.890625 -0.539062 0.882812 -0.527344 C 0.871094 -0.515625 0.859375 -0.511719 0.84375 -0.511719 C 0.828125 -0.511719 0.816406 -0.515625 0.804688 -0.527344 C 0.796875 -0.539062 0.792969 -0.554688 0.792969 -0.578125 L 0.792969 -0.695312 Z "/>
</g>
</g>
</defs>
<path fill="none" stroke-width="0.146811" stroke-linecap="butt" stroke-linejoin="miter" stroke="rgb(96.862745%, 85.098039%, 43.529412%)" stroke-opacity="1" stroke-miterlimit="2" d="M 30.367188 20.21875 L 37.910156 20.21875 L 37.910156 28.050781 L 30.367188 28.050781 Z "/>
<g fill="rgb(96.862745%, 85.098039%, 43.529412%)" fill-opacity="1">
<use xlink:href="#glyph-0-0" x="30.585938" y="24.0625"/>
</g>
<g fill="rgb(96.862745%, 85.098039%, 43.529412%)" fill-opacity="1">
<use xlink:href="#glyph-0-1" x="34.210938" y="24.0625"/>
</g>
<g fill="rgb(96.862745%, 85.098039%, 43.529412%)" fill-opacity="1">
<use xlink:href="#glyph-0-1" x="30.585938" y="27.828125"/>
</g>
<g fill="rgb(96.862745%, 85.098039%, 43.529412%)" fill-opacity="1">
<use xlink:href="#glyph-0-2" x="34.210938" y="27.828125"/>
</g>
<path fill="none" stroke-width="0.146811" stroke-linecap="butt" stroke-linejoin="miter" stroke="rgb(96.862745%, 85.098039%, 43.529412%)" stroke-opacity="1" stroke-miterlimit="2" d="M 38.367188 20.21875 L 45.910156 20.21875 L 45.910156 28.050781 L 38.367188 28.050781 Z "/>
<g fill="rgb(96.862745%, 85.098039%, 43.529412%)" fill-opacity="1">
<use xlink:href="#glyph-0-0" x="38.585938" y="24.0625"/>
</g>
<g fill="rgb(96.862745%, 85.098039%, 43.529412%)" fill-opacity="1">
<use xlink:href="#glyph-0-1" x="42.210938" y="24.0625"/>
</g>
<g fill="rgb(96.862745%, 85.098039%, 43.529412%)" fill-opacity="1">
<use xlink:href="#glyph-0-3" x="38.585938" y="27.828125"/>
</g>
<g fill="rgb(96.862745%, 85.098039%, 43.529412%)" fill-opacity="1">
<use xlink:href="#glyph-0-4" x="42.210938" y="27.828125"/>
</g>
<path fill="none" stroke-width="0.146811" stroke-linecap="butt" stroke-linejoin="miter" stroke="rgb(96.862745%, 85.098039%, 43.529412%)" stroke-opacity="1" stroke-miterlimit="2" d="M 46.367188 20.21875 L 53.910156 20.21875 L 53.910156 28.050781 L 46.367188 28.050781 Z "/>
<g fill="rgb(96.862745%, 85.098039%, 43.529412%)" fill-opacity="1">
<use xlink:href="#glyph-0-0" x="46.585938" y="24.0625"/>
</g>
<g fill="rgb(96.862745%, 85.098039%, 43.529412%)" fill-opacity="1">
<use xlink:href="#glyph-0-1" x="50.210938" y="24.0625"/>
</g>
<g fill="rgb(96.862745%, 85.098039%, 43.529412%)" fill-opacity="1">
<use xlink:href="#glyph-0-5" x="46.585938" y="27.828125"/>
</g>
<g fill="rgb(96.862745%, 85.098039%, 43.529412%)" fill-opacity="1">
<use xlink:href="#glyph-0-0" x="50.210938" y="27.828125"/>
</g>
<path fill="none" stroke-width="0.146811" stroke-linecap="butt" stroke-linejoin="miter" stroke="rgb(96.862745%, 85.098039%, 43.529412%)" stroke-opacity="1" stroke-miterlimit="2" d="M 54.367188 20.21875 L 61.910156 20.21875 L 61.910156 28.050781 L 54.367188 28.050781 Z "/>
<g fill="rgb(96.862745%, 85.098039%, 43.529412%)" fill-opacity="1">
<use xlink:href="#glyph-0-0" x="54.585938" y="24.0625"/>
</g>
<g fill="rgb(96.862745%, 85.098039%, 43.529412%)" fill-opacity="1">
<use xlink:href="#glyph-0-1" x="58.210938" y="24.0625"/>
</g>
<g fill="rgb(96.862745%, 85.098039%, 43.529412%)" fill-opacity="1">
<use xlink:href="#glyph-0-3" x="54.585938" y="27.828125"/>
</g>
<g fill="rgb(96.862745%, 85.098039%, 43.529412%)" fill-opacity="1">
<use xlink:href="#glyph-0-5" x="58.210938" y="27.828125"/>
</g>
<path fill="none" stroke-width="0.146811" stroke-linecap="butt" stroke-linejoin="miter" stroke="rgb(96.862745%, 85.098039%, 43.529412%)" stroke-opacity="1" stroke-miterlimit="2" d="M 62.367188 20.21875 L 69.910156 20.21875 L 69.910156 28.050781 L 62.367188 28.050781 Z "/>
<g fill="rgb(96.862745%, 85.098039%, 43.529412%)" fill-opacity="1">
<use xlink:href="#glyph-0-0" x="62.585938" y="24.0625"/>
</g>
<g fill="rgb(96.862745%, 85.098039%, 43.529412%)" fill-opacity="1">
<use xlink:href="#glyph-0-1" x="66.210938" y="24.0625"/>
</g>
<g fill="rgb(96.862745%, 85.098039%, 43.529412%)" fill-opacity="1">
<use xlink:href="#glyph-0-6" x="62.585938" y="27.828125"/>
</g>
<g fill="rgb(96.862745%, 85.098039%, 43.529412%)" fill-opacity="1">
<use xlink:href="#glyph-0-7" x="66.210938" y="27.828125"/>
</g>
<path fill="none" stroke-width="0.146811" stroke-linecap="butt" stroke-linejoin="miter" stroke="rgb(96.862745%, 85.098039%, 43.529412%)" stroke-opacity="1" stroke-miterlimit="2" d="M 70.367188 20.21875 L 77.910156 20.21875 L 77.910156 28.050781 L 70.367188 28.050781 Z "/>
<g fill="rgb(96.862745%, 85.098039%, 43.529412%)" fill-opacity="1">
<use xlink:href="#glyph-0-0" x="70.585938" y="24.0625"/>
</g>
<g fill="rgb(96.862745%, 85.098039%, 43.529412%)" fill-opacity="1">
<use xlink:href="#glyph-0-1" x="74.210938" y="24.0625"/>
</g>
<g fill="rgb(96.862745%, 85.098039%, 43.529412%)" fill-opacity="1">
<use xlink:href="#glyph-0-3" x="70.585938" y="27.828125"/>
</g>
<g fill="rgb(96.862745%, 85.098039%, 43.529412%)" fill-opacity="1">
<use xlink:href="#glyph-0-5" x="74.210938" y="27.828125"/>
</g>
<path fill="none" stroke-width="0.146811" stroke-linecap="butt" stroke-linejoin="miter" stroke="rgb(96.862745%, 85.098039%, 43.529412%)" stroke-opacity="1" stroke-miterlimit="2" d="M 78.367188 20.21875 L 85.910156 20.21875 L 85.910156 28.050781 L 78.367188 28.050781 Z "/>
<g fill="rgb(96.862745%, 85.098039%, 43.529412%)" fill-opacity="1">
<use xlink:href="#glyph-0-0" x="78.585938" y="24.0625"/>
</g>
<g fill="rgb(96.862745%, 85.098039%, 43.529412%)" fill-opacity="1">
<use xlink:href="#glyph-0-1" x="82.210938" y="24.0625"/>
</g>
<g fill="rgb(96.862745%, 85.098039%, 43.529412%)" fill-opacity="1">
<use xlink:href="#glyph-0-1" x="78.585938" y="27.828125"/>
</g>
<g fill="rgb(96.862745%, 85.098039%, 43.529412%)" fill-opacity="1">
<use xlink:href="#glyph-0-3" x="82.210938" y="27.828125"/>
</g>
<path fill="none" stroke-width="0.146811" stroke-linecap="butt" stroke-linejoin="miter" stroke="rgb(96.862745%, 85.098039%, 43.529412%)" stroke-opacity="1" stroke-miterlimit="2" d="M 86.367188 20.21875 L 93.910156 20.21875 L 93.910156 28.050781 L 86.367188 28.050781 Z "/>
<g fill="rgb(96.862745%, 85.098039%, 43.529412%)" fill-opacity="1">
<use xlink:href="#glyph-0-0" x="86.585938" y="24.0625"/>
</g>
<g fill="rgb(96.862745%, 85.098039%, 43.529412%)" fill-opacity="1">
<use xlink:href="#glyph-0-1" x="90.210938" y="24.0625"/>
</g>
<g fill="rgb(96.862745%, 85.098039%, 43.529412%)" fill-opacity="1">
<use xlink:href="#glyph-0-3" x="86.585938" y="27.828125"/>
</g>
<g fill="rgb(96.862745%, 85.098039%, 43.529412%)" fill-opacity="1">
<use xlink:href="#glyph-0-5" x="90.210938" y="27.828125"/>
</g>
<path fill="none" stroke-width="0.146811" stroke-linecap="butt" stroke-linejoin="miter" stroke="rgb(96.862745%, 85.098039%, 43.529412%)" stroke-opacity="1" stroke-miterlimit="2" d="M 94.367188 20.21875 L 101.910156 20.21875 L 101.910156 28.050781 L 94.367188 28.050781 Z "/>
<g fill="rgb(96.862745%, 85.098039%, 43.529412%)" fill-opacity="1">
<use xlink:href="#glyph-0-0" x="94.585938" y="24.0625"/>
</g>
<g fill="rgb(96.862745%, 85.098039%, 43.529412%)" fill-opacity="1">
<use xlink:href="#glyph-0-1" x="98.210938" y="24.0625"/>
</g>
<g fill="rgb(96.862745%, 85.098039%, 43.529412%)" fill-opacity="1">
<use xlink:href="#glyph-0-6" x="94.585938" y="27.828125"/>
</g>
<g fill="rgb(96.862745%, 85.098039%, 43.529412%)" fill-opacity="1">
<use xlink:href="#glyph-0-7" x="98.210938" y="27.828125"/>
</g>
</svg>
