<?xml version="1.0" encoding="UTF-8"?>
<svg xmlns="http://www.w3.org/2000/svg" xmlns:xlink="http://www.w3.org/1999/xlink" width="854" height="480" viewBox="0 0 854 480">
<defs>
<g>
<g id="glyph-0-0">
<path d="M 5.878906 0.277344 C 5.191406 0.277344 4.53125 0.140625 3.898438 -0.128906 C 3.269531 -0.402344 2.707031 -0.792969 2.21875 -1.304688 C 1.738281 -1.8125 1.351562 -2.4375 1.066406 -3.171875 C 0.777344 -3.90625 0.632812 -4.738281 0.632812 -5.660156 C 0.632812 -6.582031 0.777344 -7.421875 1.058594 -8.171875 C 1.339844 -8.925781 1.730469 -9.570312 2.226562 -10.113281 C 2.722656 -10.652344 3.304688 -11.066406 3.976562 -11.359375 C 4.648438 -11.652344 5.367188 -11.800781 6.132812 -11.800781 C 6.699219 -11.800781 7.214844 -11.730469 7.675781 -11.589844 C 8.136719 -11.449219 8.574219 -11.25 8.992188 -10.996094 L 9.324219 -11.546875 L 9.976562 -11.546875 L 10.050781 -7.429688 L 9.382812 -7.429688 C 9.296875 -7.832031 9.167969 -8.265625 8.992188 -8.734375 C 8.820312 -9.207031 8.617188 -9.601562 8.382812 -9.929688 C 8.125 -10.296875 7.8125 -10.585938 7.457031 -10.796875 C 7.097656 -11.003906 6.691406 -11.109375 6.230469 -11.109375 C 5.703125 -11.109375 5.214844 -10.992188 4.761719 -10.757812 C 4.308594 -10.523438 3.917969 -10.179688 3.585938 -9.722656 C 3.273438 -9.285156 3.027344 -8.726562 2.847656 -8.046875 C 2.667969 -7.367188 2.578125 -6.609375 2.578125 -5.773438 C 2.578125 -5.035156 2.671875 -4.359375 2.859375 -3.742188 C 3.046875 -3.125 3.3125 -2.582031 3.660156 -2.117188 C 4.007812 -1.65625 4.417969 -1.292969 4.890625 -1.035156 C 5.367188 -0.773438 5.894531 -0.644531 6.480469 -0.644531 C 6.921875 -0.644531 7.324219 -0.710938 7.691406 -0.851562 C 8.0625 -0.988281 8.382812 -1.171875 8.652344 -1.398438 C 8.921875 -1.636719 9.160156 -1.910156 9.367188 -2.214844 C 9.574219 -2.515625 9.742188 -2.847656 9.871094 -3.207031 L 10.480469 -2.914062 C 10.015625 -1.769531 9.398438 -0.949219 8.628906 -0.460938 C 7.859375 0.03125 6.941406 0.277344 5.878906 0.277344 Z "/>
</g>
<g id="glyph-0-1">
<path d="M 7.714844 -1.886719 C 7.378906 -1.246094 6.929688 -0.738281 6.363281 -0.359375 C 5.800781 0.0234375 5.152344 0.210938 4.417969 0.210938 C 3.773438 0.210938 3.207031 0.0976562 2.722656 -0.128906 C 2.238281 -0.359375 1.835938 -0.667969 1.523438 -1.058594 C 1.207031 -1.449219 0.972656 -1.902344 0.816406 -2.425781 C 0.664062 -2.945312 0.585938 -3.496094 0.585938 -4.078125 C 0.585938 -4.597656 0.667969 -5.109375 0.835938 -5.609375 C 1 -6.113281 1.242188 -6.566406 1.5625 -6.964844 C 1.871094 -7.351562 2.253906 -7.660156 2.714844 -7.898438 C 3.171875 -8.132812 3.6875 -8.25 4.257812 -8.25 C 4.84375 -8.25 5.34375 -8.160156 5.761719 -7.976562 C 6.179688 -7.789062 6.519531 -7.539062 6.777344 -7.21875 C 7.027344 -6.914062 7.214844 -6.554688 7.335938 -6.144531 C 7.457031 -5.730469 7.519531 -5.285156 7.519531 -4.800781 L 7.519531 -4.265625 L 2.207031 -4.265625 C 2.207031 -3.738281 2.253906 -3.257812 2.355469 -2.828125 C 2.457031 -2.398438 2.613281 -2.019531 2.832031 -1.695312 C 3.042969 -1.378906 3.320312 -1.132812 3.660156 -0.949219 C 4.003906 -0.765625 4.410156 -0.675781 4.882812 -0.675781 C 5.367188 -0.675781 5.78125 -0.789062 6.132812 -1.015625 C 6.480469 -1.242188 6.820312 -1.648438 7.144531 -2.238281 L 7.714844 -1.886719 M 5.917969 -4.949219 C 5.917969 -5.25 5.890625 -5.574219 5.839844 -5.921875 C 5.789062 -6.269531 5.703125 -6.558594 5.589844 -6.789062 C 5.464844 -7.039062 5.296875 -7.242188 5.078125 -7.398438 C 4.859375 -7.554688 4.582031 -7.632812 4.238281 -7.632812 C 3.671875 -7.632812 3.195312 -7.398438 2.820312 -6.921875 C 2.441406 -6.449219 2.238281 -5.792969 2.207031 -4.949219 Z "/>
</g>
<g id="glyph-0-2">
<path d="M 4.34375 0 L 0.429688 0 L 0.429688 -0.535156 C 0.554688 -0.546875 0.6875 -0.558594 0.828125 -0.574219 C 0.972656 -0.585938 1.085938 -0.609375 1.179688 -0.636719 C 1.332031 -0.683594 1.445312 -0.769531 1.523438 -0.890625 C 1.597656 -1.011719 1.636719 -1.171875 1.636719 -1.367188 L 1.636719 -10.667969 C 1.636719 -10.863281 1.59375 -11.046875 1.507812 -11.21875 C 1.425781 -11.390625 1.316406 -11.523438 1.179688 -11.621094 C 1.082031 -11.6875 0.902344 -11.746094 0.644531 -11.800781 C 0.382812 -11.855469 0.171875 -11.886719 0.015625 -11.898438 L 0.015625 -12.417969 L 3.035156 -12.597656 L 3.148438 -12.476562 L 3.148438 -1.464844 C 3.148438 -1.273438 3.183594 -1.117188 3.253906 -0.996094 C 3.324219 -0.875 3.441406 -0.78125 3.597656 -0.714844 C 3.714844 -0.660156 3.835938 -0.621094 3.949219 -0.59375 C 4.066406 -0.566406 4.199219 -0.546875 4.34375 -0.535156 Z "/>
</g>
<g id="glyph-0-3">
</g>
<g id="glyph-0-4">
<path d="M 7.984375 -5.296875 C 8.226562 -5.027344 8.40625 -4.730469 8.523438 -4.40625 C 8.640625 -4.082031 8.699219 -3.707031 8.699219 -3.28125 C 8.699219 -2.257812 8.324219 -1.417969 7.566406 -0.757812 C 6.8125 -0.09375 5.878906 0.234375 4.761719 0.234375 C 4.246094 0.234375 3.730469 0.15625 3.214844 -0.00390625 C 2.699219 -0.164062 2.253906 -0.359375 1.878906 -0.585938 L 1.53125 0.0078125 L 0.878906 0.0078125 L 0.765625 -3.945312 L 1.425781 -3.945312 C 1.558594 -3.457031 1.71875 -3.019531 1.898438 -2.625 C 2.082031 -2.230469 2.320312 -1.863281 2.621094 -1.523438 C 2.902344 -1.203125 3.230469 -0.945312 3.609375 -0.757812 C 3.984375 -0.566406 4.425781 -0.472656 4.921875 -0.472656 C 5.296875 -0.472656 5.625 -0.519531 5.902344 -0.617188 C 6.183594 -0.714844 6.410156 -0.855469 6.582031 -1.035156 C 6.757812 -1.214844 6.886719 -1.425781 6.96875 -1.664062 C 7.054688 -1.90625 7.097656 -2.1875 7.097656 -2.5 C 7.097656 -2.964844 6.964844 -3.394531 6.707031 -3.792969 C 6.445312 -4.191406 6.058594 -4.496094 5.542969 -4.703125 C 5.1875 -4.84375 4.785156 -4.996094 4.328125 -5.167969 C 3.875 -5.335938 3.480469 -5.5 3.148438 -5.648438 C 2.5 -5.941406 1.992188 -6.328125 1.632812 -6.800781 C 1.269531 -7.273438 1.089844 -7.894531 1.089844 -8.660156 C 1.089844 -9.097656 1.179688 -9.507812 1.359375 -9.886719 C 1.539062 -10.269531 1.792969 -10.605469 2.125 -10.90625 C 2.4375 -11.1875 2.808594 -11.410156 3.238281 -11.566406 C 3.667969 -11.726562 4.113281 -11.808594 4.582031 -11.808594 C 5.113281 -11.808594 5.589844 -11.726562 6.011719 -11.5625 C 6.429688 -11.402344 6.8125 -11.210938 7.160156 -10.996094 L 7.496094 -11.546875 L 8.144531 -11.546875 L 8.210938 -7.714844 L 7.550781 -7.714844 C 7.433594 -8.152344 7.296875 -8.574219 7.148438 -8.976562 C 7 -9.378906 6.804688 -9.742188 6.566406 -10.066406 C 6.335938 -10.382812 6.050781 -10.632812 5.710938 -10.820312 C 5.375 -11.007812 4.964844 -11.101562 4.476562 -11.101562 C 3.960938 -11.101562 3.519531 -10.933594 3.15625 -10.605469 C 2.792969 -10.273438 2.613281 -9.867188 2.613281 -9.390625 C 2.613281 -8.890625 2.730469 -8.476562 2.960938 -8.148438 C 3.195312 -7.820312 3.535156 -7.550781 3.980469 -7.339844 C 4.375 -7.152344 4.765625 -6.988281 5.148438 -6.847656 C 5.53125 -6.710938 5.898438 -6.5625 6.257812 -6.40625 C 6.582031 -6.261719 6.898438 -6.101562 7.199219 -5.925781 C 7.5 -5.746094 7.761719 -5.535156 7.984375 -5.296875 Z "/>
</g>
<g id="glyph-0-5">
<path d="M 5.542969 -0.351562 C 5.1875 -0.203125 4.855469 -0.078125 4.539062 0.0195312 C 4.226562 0.121094 3.839844 0.171875 3.386719 0.171875 C 2.710938 0.171875 2.238281 0 1.964844 -0.335938 C 1.691406 -0.675781 1.554688 -1.15625 1.554688 -1.773438 L 1.554688 -7.210938 L 0.105469 -7.210938 L 0.105469 -7.992188 L 1.585938 -7.992188 L 1.585938 -10.488281 L 3.066406 -10.488281 L 3.066406 -7.992188 L 5.371094 -7.992188 L 5.371094 -7.210938 L 3.085938 -7.210938 L 3.085938 -2.726562 C 3.085938 -2.390625 3.097656 -2.109375 3.121094 -1.882812 C 3.144531 -1.660156 3.203125 -1.460938 3.296875 -1.292969 C 3.382812 -1.136719 3.511719 -1.015625 3.6875 -0.9375 C 3.859375 -0.855469 4.09375 -0.8125 4.386719 -0.8125 C 4.523438 -0.8125 4.722656 -0.824219 4.984375 -0.851562 C 5.246094 -0.875 5.433594 -0.90625 5.542969 -0.945312 Z "/>
</g>
<g id="glyph-0-6">
<path d="M 6.730469 -6.992188 C 6.730469 -6.714844 6.664062 -6.46875 6.527344 -6.253906 C 6.390625 -6.039062 6.183594 -5.933594 5.898438 -5.933594 C 5.597656 -5.933594 5.363281 -6.011719 5.203125 -6.167969 C 5.042969 -6.324219 4.964844 -6.5 4.964844 -6.6875 C 4.964844 -6.808594 4.972656 -6.917969 4.992188 -7.015625 C 5.011719 -7.113281 5.027344 -7.210938 5.046875 -7.308594 C 4.789062 -7.308594 4.492188 -7.203125 4.148438 -7 C 3.808594 -6.792969 3.519531 -6.5 3.28125 -6.121094 L 3.28125 -1.449219 C 3.28125 -1.257812 3.316406 -1.105469 3.390625 -0.984375 C 3.460938 -0.867188 3.578125 -0.777344 3.734375 -0.714844 C 3.871094 -0.660156 4.046875 -0.621094 4.261719 -0.59375 C 4.472656 -0.566406 4.660156 -0.546875 4.816406 -0.535156 L 4.816406 0 L 0.585938 0 L 0.585938 -0.535156 C 0.710938 -0.546875 0.839844 -0.558594 0.972656 -0.570312 C 1.105469 -0.582031 1.21875 -0.601562 1.316406 -0.632812 C 1.46875 -0.683594 1.582031 -0.769531 1.65625 -0.890625 C 1.730469 -1.011719 1.765625 -1.171875 1.765625 -1.367188 L 1.765625 -6.316406 C 1.765625 -6.484375 1.726562 -6.648438 1.648438 -6.8125 C 1.570312 -6.976562 1.460938 -7.105469 1.316406 -7.203125 C 1.214844 -7.265625 1.09375 -7.316406 0.953125 -7.34375 C 0.8125 -7.375 0.660156 -7.394531 0.496094 -7.40625 L 0.496094 -7.941406 L 3.164062 -8.121094 L 3.28125 -8.007812 L 3.28125 -6.875 L 3.320312 -6.875 C 3.65625 -7.316406 4.03125 -7.648438 4.441406 -7.878906 C 4.855469 -8.105469 5.234375 -8.21875 5.574219 -8.21875 C 5.917969 -8.21875 6.195312 -8.109375 6.410156 -7.886719 C 6.621094 -7.664062 6.730469 -7.363281 6.730469 -6.992188 Z "/>
</g>
<g id="glyph-0-7">
<path d="M 9.1875 -0.144531 L 6.566406 0.03125 L 6.445312 -0.0820312 L 6.445312 -1.097656 L 6.398438 -1.097656 C 6.265625 -0.964844 6.121094 -0.816406 5.957031 -0.664062 C 5.796875 -0.507812 5.609375 -0.367188 5.398438 -0.242188 C 5.152344 -0.0976562 4.917969 0.0117188 4.691406 0.0898438 C 4.460938 0.164062 4.140625 0.203125 3.722656 0.203125 C 3.015625 0.203125 2.472656 -0.0273438 2.101562 -0.492188 C 1.730469 -0.953125 1.546875 -1.628906 1.546875 -2.511719 L 1.546875 -6.347656 C 1.546875 -6.542969 1.507812 -6.707031 1.4375 -6.839844 C 1.363281 -6.972656 1.253906 -7.089844 1.113281 -7.1875 C 1.015625 -7.25 0.890625 -7.296875 0.742188 -7.328125 C 0.597656 -7.359375 0.441406 -7.378906 0.277344 -7.390625 L 0.277344 -7.925781 L 2.953125 -8.121094 L 3.074219 -8.007812 L 3.074219 -2.433594 C 3.074219 -1.851562 3.207031 -1.414062 3.464844 -1.121094 C 3.726562 -0.828125 4.039062 -0.683594 4.402344 -0.683594 C 4.699219 -0.683594 4.96875 -0.730469 5.199219 -0.820312 C 5.433594 -0.914062 5.628906 -1.023438 5.785156 -1.148438 C 5.933594 -1.261719 6.0625 -1.382812 6.171875 -1.507812 C 6.285156 -1.636719 6.371094 -1.753906 6.429688 -1.863281 L 6.429688 -6.40625 C 6.429688 -6.585938 6.390625 -6.742188 6.316406 -6.882812 C 6.238281 -7.019531 6.132812 -7.136719 5.996094 -7.234375 C 5.898438 -7.300781 5.753906 -7.339844 5.5625 -7.351562 C 5.371094 -7.367188 5.152344 -7.378906 4.914062 -7.390625 L 4.914062 -7.925781 L 7.835938 -8.121094 L 7.957031 -8.007812 L 7.957031 -1.644531 C 7.957031 -1.457031 7.996094 -1.300781 8.074219 -1.171875 C 8.148438 -1.042969 8.253906 -0.929688 8.390625 -0.839844 C 8.488281 -0.777344 8.605469 -0.738281 8.738281 -0.71875 C 8.875 -0.703125 9.023438 -0.6875 9.1875 -0.683594 Z "/>
</g>
<g id="glyph-0-8">
<path d="M 4.296875 0.210938 C 3.136719 0.210938 2.226562 -0.171875 1.570312 -0.945312 C 0.914062 -1.714844 0.585938 -2.746094 0.585938 -4.042969 C 0.585938 -4.609375 0.675781 -5.136719 0.851562 -5.628906 C 1.027344 -6.117188 1.28125 -6.566406 1.621094 -6.964844 C 1.941406 -7.351562 2.339844 -7.660156 2.824219 -7.898438 C 3.308594 -8.132812 3.832031 -8.25 4.402344 -8.25 C 5.1875 -8.25 5.828125 -8.0625 6.324219 -7.6875 C 6.816406 -7.308594 7.0625 -6.796875 7.0625 -6.144531 C 7.0625 -5.871094 7 -5.632812 6.867188 -5.425781 C 6.738281 -5.214844 6.523438 -5.109375 6.226562 -5.109375 C 5.90625 -5.109375 5.65625 -5.191406 5.480469 -5.355469 C 5.304688 -5.515625 5.214844 -5.699219 5.214844 -5.898438 C 5.214844 -6.140625 5.25 -6.390625 5.3125 -6.648438 C 5.378906 -6.90625 5.417969 -7.09375 5.429688 -7.210938 C 5.332031 -7.378906 5.1875 -7.492188 4.992188 -7.546875 C 4.800781 -7.605469 4.59375 -7.632812 4.371094 -7.632812 C 4.113281 -7.632812 3.867188 -7.578125 3.628906 -7.464844 C 3.394531 -7.355469 3.167969 -7.152344 2.945312 -6.851562 C 2.742188 -6.582031 2.582031 -6.214844 2.457031 -5.753906 C 2.332031 -5.292969 2.269531 -4.742188 2.269531 -4.101562 C 2.269531 -3.09375 2.492188 -2.269531 2.941406 -1.632812 C 3.386719 -0.996094 3.972656 -0.675781 4.699219 -0.675781 C 5.226562 -0.675781 5.664062 -0.804688 6.019531 -1.058594 C 6.375 -1.316406 6.703125 -1.699219 7.007812 -2.214844 L 7.527344 -1.871094 C 7.167969 -1.230469 6.699219 -0.722656 6.113281 -0.351562 C 5.527344 0.0234375 4.921875 0.210938 4.296875 0.210938 Z "/>
</g>
</g>
</defs>
<g fill="rgb(100%, 100%, 100%)" fill-opacity="1">
<use xlink:href="#glyph-0-0" x="30" y="35.282227"/>
<use xlink:href="#glyph-0-1" x="41" y="35.282227"/>
<use xlink:href="#glyph-0-2" x="49" y="35.282227"/>
<use xlink:href="#glyph-0-2" x="54" y="35.282227"/>
<use xlink:href="#glyph-0-3" x="59" y="35.282227"/>
<use xlink:href="#glyph-0-4" x="63" y="35.282227"/>
<use xlink:href="#glyph-0-5" x="72" y="35.282227"/>
<use xlink:href="#glyph-0-6" x="78" y="35.282227"/>
<use xlink:href="#glyph-0-7" x="85" y="35.282227"/>
<use xlink:href="#glyph-0-8" x="95" y="35.282227"/>
<use xlink:href="#glyph-0-5" x="103" y="35.282227"/>
<use xlink:href="#glyph-0-7" x="109" y="35.282227"/>
<use xlink:href="#glyph-0-6" x="119" y="35.282227"/>
<use xlink:href="#glyph-0-1" x="126" y="35.282227"/>
</g>
</svg>
